<svg xmlns="http://www.w3.org/2000/svg" style="width:0; height:0; visibility:hidden;">
    <symbol id="icon_cancel" viewBox="0 0 21.9 21.9">
       <path d="M14.1,11.3c-0.2-0.2-0.2-0.5,0-0.7l7.5-7.5c0.2-0.2,0.3-0.5,0.3-0.7s-0.1-0.5-0.3-0.7l-1.4-1.4C20,0.1,19.7,0,19.5,0  c-0.3,0-0.5,0.1-0.7,0.3l-7.5,7.5c-0.2,0.2-0.5,0.2-0.7,0L3.1,0.3C2.9,0.1,2.6,0,2.4,0S1.9,0.1,1.7,0.3L0.3,1.7C0.1,1.9,0,2.2,0,2.4  s0.1,0.5,0.3,0.7l7.5,7.5c0.2,0.2,0.2,0.5,0,0.7l-7.5,7.5C0.1,19,0,19.3,0,19.5s0.1,0.5,0.3,0.7l1.4,1.4c0.2,0.2,0.5,0.3,0.7,0.3  s0.5-0.1,0.7-0.3l7.5-7.5c0.2-0.2,0.5-0.2,0.7,0l7.5,7.5c0.2,0.2,0.5,0.3,0.7,0.3s0.5-0.1,0.7-0.3l1.4-1.4c0.2-0.2,0.3-0.5,0.3-0.7  s-0.1-0.5-0.3-0.7L14.1,11.3z"/> 
    </symbol>
    <symbol id="icon_icon-facebook" viewBox="0 0 438.536 438.536">
       <g> <path d="M414.41,24.123C398.333,8.042,378.963,0,356.315,0H82.228C59.58,0,40.21,8.042,24.126,24.123
		C8.045,40.207,0.003,59.576,0.003,82.225v274.084c0,22.647,8.042,42.018,24.123,58.102c16.084,16.084,35.454,24.126,58.102,24.126
		h274.084c22.648,0,42.018-8.042,58.095-24.126c16.084-16.084,24.126-35.454,24.126-58.102V82.225
		C438.532,59.576,430.49,40.204,414.41,24.123z M373.155,225.548h-49.963V406.84h-74.802V225.548H210.99V163.02h37.401v-37.402
		c0-26.838,6.283-47.107,18.843-60.813c12.559-13.706,33.304-20.555,62.242-20.555h49.963v62.526h-31.401
		c-10.663,0-17.467,1.853-20.417,5.568c-2.949,3.711-4.428,10.23-4.428,19.558v31.119h56.534L373.155,225.548z"/> </g>                
    </symbol>
    <symbol id="icon_icon-google" viewBox="0 0 491.858 491.858">
       <g> <g> <g> <path d="M377.472,224.957H201.319v58.718H308.79c-16.032,51.048-63.714,88.077-120.055,88.077
				c-69.492,0-125.823-56.335-125.823-125.824c0-69.492,56.333-125.823,125.823-125.823c34.994,0,66.645,14.289,89.452,37.346
				l42.622-46.328c-34.04-33.355-80.65-53.929-132.074-53.929C84.5,57.193,0,141.693,0,245.928s84.5,188.737,188.736,188.737
				c91.307,0,171.248-64.844,188.737-150.989v-58.718L377.472,224.957L377.472,224.957z"/> <polygon points="491.858,224.857 455.827,224.857 455.827,188.826 424.941,188.826 424.941,224.857 388.91,224.857 
				388.91,255.74 424.941,255.74 424.941,291.772 455.827,291.772 455.827,255.74 491.858,255.74 			"/> </g> </g>                </g>                
    </symbol>
    <symbol id="icon_icon-heart" viewBox="0 0 511.626 511.627">
       <g> <path d="M475.366,71.951c-24.175-23.606-57.575-35.404-100.215-35.404c-11.8,0-23.843,2.046-36.117,6.136
		c-12.279,4.093-23.702,9.615-34.256,16.562c-10.568,6.945-19.65,13.467-27.269,19.556c-7.61,6.091-14.845,12.564-21.696,19.414
		c-6.854-6.85-14.087-13.323-21.698-19.414c-7.616-6.089-16.702-12.607-27.268-19.556c-10.564-6.95-21.985-12.468-34.261-16.562
		c-12.275-4.089-24.316-6.136-36.116-6.136c-42.637,0-76.039,11.801-100.211,35.404C12.087,95.552,0,128.288,0,170.162
		c0,12.753,2.24,25.889,6.711,39.398c4.471,13.514,9.566,25.031,15.275,34.546c5.708,9.514,12.181,18.796,19.414,27.837
		c7.233,9.042,12.519,15.27,15.846,18.699c3.33,3.422,5.948,5.899,7.851,7.419L243.25,469.937c3.427,3.429,7.614,5.144,12.562,5.144
		s9.138-1.715,12.563-5.137l177.87-171.307c43.588-43.583,65.38-86.41,65.38-128.475C511.626,128.288,499.537,95.552,475.366,71.951
		z"/> </g>                
    </symbol>
    <symbol id="icon_icon-instagram" viewBox="0 0 438.536 438.536">
       <g> <path d="M421.981,16.562C410.941,5.519,397.711,0,382.298,0H56.248C40.83,0,27.604,5.521,16.561,16.562
		C5.52,27.6,0.001,40.828,0.001,56.243V382.29c0,15.413,5.518,28.644,16.56,39.683c11.043,11.04,24.272,16.563,39.687,16.563
		h326.046c15.41,0,28.644-5.523,39.684-16.563c11.043-11.039,16.557-24.27,16.557-39.683V56.243
		C438.534,40.825,433.021,27.604,421.981,16.562z M157.462,158.025c17.224-16.652,37.924-24.982,62.097-24.982
		c24.36,0,45.153,8.33,62.381,24.982c17.228,16.655,25.837,36.785,25.837,60.386c0,23.598-8.609,43.729-25.837,60.379
		c-17.228,16.659-38.014,24.988-62.381,24.988c-24.172,0-44.87-8.336-62.097-24.988c-17.228-16.652-25.841-36.781-25.841-60.379
		C131.621,194.81,140.234,174.681,157.462,158.025z M388.865,370.589c0,4.945-1.718,9.083-5.141,12.416
		c-3.433,3.33-7.519,4.996-12.282,4.996h-305.2c-4.948,0-9.091-1.666-12.419-4.996c-3.333-3.326-4.998-7.471-4.998-12.416V185.575
		H89.08c-3.805,11.993-5.708,24.462-5.708,37.402c0,36.553,13.322,67.715,39.969,93.511c26.65,25.786,58.721,38.685,96.217,38.685
		c24.744,0,47.583-5.903,68.527-17.703c20.937-11.807,37.486-27.839,49.676-48.112c12.183-20.272,18.274-42.4,18.274-66.38
		c0-12.94-1.91-25.406-5.715-37.402h38.547v185.014H388.865z M388.865,115.626c0,5.52-1.903,10.184-5.716,13.99
		c-3.805,3.809-8.466,5.711-13.989,5.711h-49.676c-5.517,0-10.185-1.903-13.99-5.711c-3.806-3.806-5.708-8.47-5.708-13.99V68.522
		c0-5.33,1.902-9.945,5.708-13.848c3.806-3.901,8.474-5.854,13.99-5.854h49.676c5.523,0,10.185,1.952,13.989,5.854
		c3.812,3.903,5.716,8.518,5.716,13.848V115.626z"/> </g>                
    </symbol>
    <symbol id="icon_icon-pinterest" viewBox="0 0 438.529 438.529">
       <g> <path d="M409.141,109.203c-19.608-33.592-46.205-60.189-79.798-79.796C295.751,9.801,259.065,0,219.281,0
		C179.5,0,142.812,9.801,109.22,29.407c-33.597,19.604-60.194,46.201-79.8,79.796C9.809,142.8,0.008,179.485,0.008,219.267
		c0,44.35,12.085,84.611,36.258,120.767c24.172,36.172,55.863,62.912,95.073,80.232c-0.762-20.365,0.476-37.209,3.709-50.532
		l28.267-119.348c-4.76-9.329-7.139-20.93-7.139-34.831c0-16.175,4.089-29.689,12.275-40.541
		c8.186-10.85,18.177-16.274,29.979-16.274c9.514,0,16.841,3.14,21.982,9.42c5.142,6.283,7.705,14.181,7.705,23.7
		c0,5.896-1.099,13.084-3.289,21.554c-2.188,8.471-5.041,18.273-8.562,29.409c-3.521,11.132-6.045,20.036-7.566,26.692
		c-2.663,11.608-0.476,21.553,6.567,29.838c7.042,8.278,16.372,12.423,27.983,12.423c20.365,0,37.065-11.324,50.107-33.972
		c13.038-22.655,19.554-50.159,19.554-82.514c0-24.938-8.042-45.21-24.129-60.813c-16.085-15.609-38.496-23.417-67.239-23.417
		c-32.161,0-58.192,10.327-78.082,30.978c-19.891,20.654-29.836,45.352-29.836,74.091c0,17.132,4.854,31.505,14.56,43.112
		c3.235,3.806,4.283,7.898,3.14,12.279c-0.381,1.143-1.141,3.997-2.284,8.562c-1.138,4.565-1.903,7.522-2.281,8.851
		c-1.521,6.091-5.14,7.994-10.85,5.708c-14.654-6.085-25.791-16.652-33.402-31.689c-7.614-15.037-11.422-32.456-11.422-52.246
		c0-12.753,2.047-25.505,6.14-38.256c4.089-12.756,10.468-25.078,19.126-36.975c8.663-11.9,19.036-22.417,31.123-31.549
		c12.082-9.135,26.787-16.462,44.108-21.982s35.972-8.28,55.959-8.28c27.032,0,51.295,5.995,72.8,17.986
		c21.512,11.992,37.925,27.502,49.252,46.537c11.327,19.036,16.987,39.403,16.987,61.101c0,28.549-4.948,54.243-14.842,77.086
		c-9.896,22.839-23.887,40.778-41.973,53.813c-18.083,13.042-38.637,19.561-61.675,19.561c-11.607,0-22.456-2.714-32.548-8.135
		c-10.085-5.427-17.034-11.847-20.839-19.273c-8.566,33.685-13.706,53.77-15.42,60.24c-3.616,13.508-11.038,29.119-22.27,46.819
		c20.367,6.091,41.112,9.13,62.24,9.13c39.781,0,76.47-9.801,110.062-29.41c33.595-19.602,60.192-46.199,79.794-79.791
		c19.606-33.599,29.407-70.287,29.407-110.065C438.527,179.485,428.74,142.795,409.141,109.203z"/> </g>                
    </symbol>
    <symbol id="icon_icon-rss" viewBox="0 0 402.041 402.04">
       <g> <g> <path d="M54.816,292.382c-15.229,0-28.169,5.331-38.831,15.988C5.33,319.026,0,331.969,0,347.197
			c0,15.232,5.325,28.172,15.985,38.828c10.662,10.657,23.606,15.988,38.831,15.988c15.227,0,28.168-5.331,38.828-15.988
			c10.656-10.656,15.986-23.596,15.986-38.828c0-15.229-5.33-28.171-15.986-38.827C82.987,297.713,70.046,292.382,54.816,292.382z"/> <path d="M181.01,221.002c-21.51-21.698-46.158-38.97-73.948-51.816c-27.79-12.85-56.914-20.511-87.366-22.985h-1.425
			c-4.949,0-9.042,1.619-12.275,4.854C1.997,154.477,0,158.953,0,164.472v38.543c0,4.757,1.569,8.85,4.708,12.279
			c3.14,3.429,7.089,5.332,11.848,5.708c43.586,4.189,80.845,21.752,111.773,52.678c30.93,30.926,48.49,68.187,52.677,111.771
			c0.382,4.764,2.284,8.712,5.712,11.847c3.427,3.148,7.517,4.72,12.275,4.72h38.545c5.517,0,9.989-1.995,13.415-5.996
			c3.621-3.812,5.236-8.381,4.863-13.709c-2.478-30.447-10.14-59.573-22.987-87.361C219.983,267.16,202.708,242.514,181.01,221.002z
			"/> <path d="M367.728,239.701c-20.365-45.585-48.345-86.078-83.936-121.482c-35.405-35.594-75.896-63.572-121.485-83.939
			C116.723,13.917,68.996,2.494,19.126,0.02h-0.855c-4.949,0-9.136,1.713-12.563,5.14C1.903,8.583,0,12.964,0,18.294v40.825
			c0,4.76,1.667,8.897,4.996,12.419c3.33,3.523,7.373,5.376,12.132,5.57c40.924,2.478,79.799,12.188,116.63,29.127
			c36.83,16.94,68.806,38.972,95.93,66.09c27.118,27.123,49.149,59.101,66.089,95.931c16.94,36.836,26.557,75.705,28.839,116.627
			c0.195,4.764,2.046,8.809,5.564,12.139c3.524,3.329,7.762,4.999,12.71,4.999h40.823c5.331,0,9.701-1.902,13.134-5.715
			c3.809-3.806,5.517-8.274,5.144-13.415C399.52,333.017,388.093,285.291,367.728,239.701z"/> </g> </g>                
    </symbol>
    <symbol id="icon_icon-search" viewBox="0 0 475.084 475.084">
       <g> <path d="M464.524,412.846l-97.929-97.925c23.6-34.068,35.406-72.047,35.406-113.917c0-27.218-5.284-53.249-15.852-78.087
		c-10.561-24.842-24.838-46.254-42.825-64.241c-17.987-17.987-39.396-32.264-64.233-42.826
		C254.246,5.285,228.217,0.003,200.999,0.003c-27.216,0-53.247,5.282-78.085,15.847C98.072,26.412,76.66,40.689,58.673,58.676
		c-17.989,17.987-32.264,39.403-42.827,64.241C5.282,147.758,0,173.786,0,201.004c0,27.216,5.282,53.238,15.846,78.083
		c10.562,24.838,24.838,46.247,42.827,64.234c17.987,17.993,39.403,32.264,64.241,42.832c24.841,10.563,50.869,15.844,78.085,15.844
		c41.879,0,79.852-11.807,113.922-35.405l97.929,97.641c6.852,7.231,15.406,10.849,25.693,10.849
		c9.897,0,18.467-3.617,25.694-10.849c7.23-7.23,10.848-15.796,10.848-25.693C475.088,428.458,471.567,419.889,464.524,412.846z
		 M291.363,291.358c-25.029,25.033-55.148,37.549-90.364,37.549c-35.21,0-65.329-12.519-90.36-37.549
		c-25.031-25.029-37.546-55.144-37.546-90.36c0-35.21,12.518-65.334,37.546-90.36c25.026-25.032,55.15-37.546,90.36-37.546
		c35.212,0,65.331,12.519,90.364,37.546c25.033,25.026,37.548,55.15,37.548,90.36C328.911,236.214,316.392,266.329,291.363,291.358z
		"/> </g>                
    </symbol>
    <symbol id="icon_icon-twitter" viewBox="0 0 449.956 449.956">
       <g> <path d="M449.956,85.657c-17.702,7.614-35.408,12.369-53.102,14.279c19.985-11.991,33.503-28.931,40.546-50.819
		c-18.281,10.847-37.787,18.268-58.532,22.267c-18.274-19.414-40.73-29.125-67.383-29.125c-25.502,0-47.246,8.992-65.24,26.98
		c-17.984,17.987-26.977,39.731-26.977,65.235c0,6.851,0.76,13.896,2.284,21.128c-37.688-1.903-73.042-11.372-106.068-28.407
		C82.46,110.158,54.433,87.46,31.403,59.101c-8.375,14.272-12.564,29.787-12.564,46.536c0,15.798,3.711,30.456,11.138,43.97
		c7.422,13.512,17.417,24.455,29.98,32.831c-14.849-0.572-28.743-4.475-41.684-11.708v1.142c0,22.271,6.995,41.824,20.983,58.674
		c13.99,16.848,31.645,27.453,52.961,31.833c-7.995,2.091-16.086,3.138-24.269,3.138c-5.33,0-11.136-0.475-17.416-1.42
		c5.9,18.459,16.75,33.633,32.546,45.535c15.799,11.896,33.691,18.028,53.677,18.418c-33.498,26.262-71.66,39.393-114.486,39.393
		c-8.186,0-15.607-0.373-22.27-1.139c42.827,27.596,90.03,41.394,141.612,41.394c32.738,0,63.478-5.181,92.21-15.557
		c28.746-10.369,53.297-24.267,73.665-41.686c20.362-17.415,37.925-37.448,52.674-60.097c14.75-22.651,25.738-46.298,32.977-70.946
		c7.23-24.653,10.848-49.344,10.848-74.092c0-5.33-0.096-9.325-0.287-11.991C421.785,120.202,437.202,104.306,449.956,85.657z"/> </g>                
    </symbol>
    <symbol id="icon_logo" viewBox="0 0 279.4 29.8">
       <path fill="#F2394A" d="M12.4,28.6H1.8V4.8h3.6v21.8h7V28.6z"/> <path fill="#F2394A" d="M13.7,11.1c0-2,0.4-3.6,1.2-4.7c0.8-1.1,2.1-1.6,3.9-1.6H24c1.8,0,3.1,0.5,3.9,1.6c0.8,1.1,1.2,2.7,1.2,4.7
		v11.4c0,1.9-0.4,3.4-1.2,4.5c-0.8,1.1-2.1,1.6-3.9,1.6h-5.2c-1.8,0-3.1-0.5-3.9-1.6c-0.8-1.1-1.2-2.6-1.2-4.5V11.1z M25.5,11.1
		c0-1.7-0.2-2.8-0.6-3.4c-0.4-0.6-1.1-0.9-2-0.9h-3.1c-0.9,0-1.6,0.3-2,0.9c-0.4,0.6-0.6,1.7-0.6,3.4v11.4c0,1.4,0.2,2.4,0.6,3.1
		c0.4,0.7,1.1,1,2,1h3.1c0.9,0,1.6-0.3,2-1c0.4-0.7,0.6-1.7,0.6-3.1V11.1z"/> <path fill="#F2394A" d="M45.1,21.5c0,2.5-0.4,4.3-1.3,5.4c-0.8,1.2-2.3,1.7-4.3,1.7h-7.6v-2h6.9c0.5,0,0.9-0.1,1.3-0.2
		c0.4-0.1,0.7-0.3,0.9-0.7c0.2-0.3,0.4-0.8,0.5-1.4s0.2-1.4,0.2-2.4c0-0.8,0-1.5-0.1-2.1c-0.1-0.5-0.3-0.9-0.5-1.2
		c-0.2-0.3-0.6-0.5-1-0.6c-0.4-0.1-1-0.2-1.6-0.2h-2.6c-0.9,0-1.6-0.1-2.2-0.3c-0.6-0.2-1.1-0.6-1.4-1.1c-0.4-0.5-0.6-1.2-0.8-2
		c-0.2-0.8-0.2-1.9-0.2-3.1c0-2.1,0.4-3.7,1.2-4.9c0.8-1.2,2.1-1.8,4.1-1.8h6.6v2h-5.8c-0.5,0-0.9,0.1-1.2,0.2
		c-0.3,0.1-0.6,0.3-0.9,0.6c-0.2,0.3-0.4,0.7-0.5,1.3c-0.1,0.5-0.2,1.2-0.2,2c0,0.8,0,1.4,0.1,2c0.1,0.5,0.2,0.9,0.4,1.2
		c0.2,0.3,0.5,0.5,0.8,0.6c0.4,0.1,0.9,0.2,1.5,0.2h2.4c0.9,0,1.7,0.1,2.4,0.3c0.7,0.2,1.2,0.5,1.6,1c0.4,0.5,0.7,1.1,1,2
		S45.1,20.1,45.1,21.5z"/> <path fill="#F2394A" d="M58.7,6.8h-4.9v21.8h-3.6V6.8h-4.9v-2h13.4V6.8z"/> <path fill="#3C3C3C" d="M64.6,3.4h13c3,0,5.3,0.2,7.2,1.2c2.3,1.3,3.5,3.7,3.5,6.9c0,3.3-1.3,5.6-3.6,6.8c-2.3,1.2-5,1.3-8.4,1.3
		h-4.8v9h-7V3.4z M71.6,14.8H76c3.6,0,5.2-0.6,5.2-3.3c0-2.6-1.7-3.1-5.2-3.1h-4.3V14.8z"/> <path fill="#3C3C3C" d="M99.5,3.4h8.5l12.4,25.2h-8.1l-2.2-5.1H96.3l-2.3,5.1h-7.6L99.5,3.4z M107.7,18.7L103.4,9l-4.8,9.7H107.7z"/> <path fill="#3C3C3C" d="M122.1,3.4h13.8c3,0,5.4,0.1,7.4,1.1c2.1,1,3.2,2.9,3.2,5.3c0,3.5-2.3,5.6-6.9,6.4c3.3,0,5,0.8,5.7,2.9
		c0.7,2,0.6,5.4,1.9,9.6h-7.4c-0.4-0.7-0.5-1.7-0.7-2.9l-0.5-3.4c-0.5-3.1-1.5-3.3-5.3-3.3H129v9.6h-7V3.4z M129,14.2h4.4
		c3.8,0,5.5-0.6,5.5-3c0-2.5-1.8-2.9-5.5-2.9H129V14.2z"/> <path fill="#3C3C3C" d="M160.2,3.4h8.5l12.4,25.2H173l-2.2-5.1H157l-2.3,5.1h-7.6L160.2,3.4z M168.5,18.7L164.2,9l-4.8,9.7H168.5z"/> <path fill="#3C3C3C" d="M182.8,3.4h12.7c4,0,7.1,0.3,9.9,1.9c3.6,2,5.7,5.9,5.7,11c0,4.9-2,8.6-5.5,10.6c-3,1.7-6.2,1.8-10.1,1.8
		h-12.7V3.4z M189.9,9v14.2h4.6c6.3,0,9.2-2,9.2-7c0-4.8-3-7.2-9.2-7.2H189.9z"/> <path fill="#3C3C3C" d="M215.7,3.4h7.2v25.2h-7.2V3.4z"/> <path fill="#3C3C3C" d="M234.7,20.2v0.2c0,2.5,1.6,3.6,5,3.6c3,0,4.6-0.9,4.6-2.6c0-2.2-2.5-2.3-6.9-3.2c-6.4-1.2-9.3-3-9.3-7.3
		c0-5.1,4.1-7.9,11.8-7.9c7.2,0,10.6,2.3,11,7.6h-6.8v-0.1c0-1.9-1.5-2.8-4.4-2.8c-2.9,0-4.4,0.9-4.4,2.3c0,2,2.1,2.2,6.4,3
		c3.3,0.6,5.8,1.1,7.7,2.7c1.4,1.2,2.1,3,2.1,5.1c0,5.1-4.3,8.1-12.2,8.1c-7.9,0-11.8-2.7-11.8-8.3v-0.5H234.7z"/> <path fill="#3C3C3C" d="M255.8,3.4h21.5v5.4h-14.5v4.4h13.8v5.2h-13.8v4.9h14.9v5.4h-21.8V3.4z"/> <rect x="-56.3" y="23.6" fill="none"/> 
    </symbol>
    <symbol id="icon_share-img-behance" viewBox="0 0 512 512">
      <path d="M374,511.7H138c-76.2,0-138-61.8-138-138v-236c0-76.2,61.8-138,138-138h236c76.2,0,138,61.8,138,138v236  C512,449.9,450.2,511.7,374,511.7z" fill="#1769FF"/><path d="M361,197.9h-65.3v-16.2H361L361,197.9L361,197.9z M252.3,264.4c4.2,6.5,6.3,14.4,6.3,23.7  c0,9.6-2.4,18.2-7.2,25.9c-3.1,5-6.9,9.3-11.5,12.7c-5.2,4-11.3,6.7-18.3,8.1c-7,1.5-14.7,2.2-22.9,2.2h-73V174.9H204  c19.7,0.3,33.7,6,42,17.3c5,6.9,7.4,15.1,7.4,24.8c0,9.9-2.5,17.8-7.5,23.9c-2.8,3.4-6.9,6.4-12.3,9.2  C241.8,253.1,248.1,257.8,252.3,264.4z M163.1,238.9h34.3c7,0,12.7-1.3,17.1-4c4.4-2.7,6.6-7.4,6.6-14.3c0-7.5-2.9-12.5-8.7-15  c-5-1.7-11.4-2.5-19.1-2.5h-30.2V238.9z M224.4,285.8c0-8.4-3.4-14.2-10.3-17.4c-3.8-1.8-9.3-2.7-16.2-2.7h-34.8v43.2h34.3  c7,0,12.5-0.9,16.4-2.8C220.9,302.5,224.4,295.8,224.4,285.8z M385.2,259.4c0.8,5.3,1.1,13,1,23.1h-84.6  c0.5,11.7,4.5,19.8,12.1,24.5c4.6,2.9,10.2,4.4,16.7,4.4c6.9,0,12.5-1.7,16.8-5.3c2.4-1.9,4.4-4.6,6.2-8h31  c-0.8,6.9-4.5,13.9-11.2,21c-10.4,11.3-25,17-43.7,17c-15.5,0-29.1-4.8-40.9-14.3c-11.8-9.5-17.7-25-17.7-46.5  c0-20.1,5.3-35.6,16-46.3c10.7-10.8,24.5-16.1,41.5-16.1c10.1,0,19.2,1.8,27.3,5.4c8.1,3.6,14.8,9.3,20,17.2  C380.7,242.3,383.8,250.3,385.2,259.4z M354.7,262.5c-0.6-8.1-3.3-14.2-8.1-18.4c-4.8-4.2-10.8-6.3-18-6.3c-7.8,0-13.8,2.2-18.1,6.7  c-4.3,4.4-7,10.4-8.1,18H354.7z" fill="#FFFFFF" id="Behance"/>
    </symbol>
    <symbol id="icon_share-img-dribbble" viewBox="0 0 512 512">
      <path d="M374,511.7H138c-76.2,0-138-61.8-138-138v-236c0-76.2,61.8-138,138-138h236c76.2,0,138,61.8,138,138v236  C512,449.9,450.2,511.7,374,511.7z" fill="#EA4C89"/><path d="M256,114.6c-78.1,0-141.6,63.4-141.6,141.4c0,78,63.5,141.4,141.6,141.4S397.6,334,397.6,256  C397.6,178,334.1,114.6,256,114.6z M349.1,181.4c16.1,20,26,45.3,26.4,72.8c-5.4-1.1-28.1-5.3-55.3-5.3c-8.8,0-18,0.4-27.3,1.6  c-0.8-1.9-1.6-3.8-2.4-5.7c-2.4-5.6-5-11.2-7.7-16.8C324.8,210.7,345,186.8,349.1,181.4z M256,136.7c30.2,0,57.7,11.2,78.8,29.7  c-3.3,4.6-21.4,27.1-61.8,42.4c-18.7-34.2-39.1-62.4-44-69C237.7,137.8,246.7,136.7,256,136.7z M204.6,148.4  c4.1,5.7,24.6,34.2,43.8,68.1c-51.4,13.5-97.1,14.4-108.1,14.4c-0.4,0-0.8,0-1.2,0C147,194.4,171.7,164.1,204.6,148.4z M136.4,256.2  c0-1,0-2,0.1-2.9c0.7,0,1.8,0,3.1,0c14.8,0,66.4-1.2,119.4-17c3.2,6.3,6.3,12.7,9.1,19.1c-1.3,0.4-2.7,0.8-4,1.2  c-59.8,19.3-92.6,70.4-97.7,78.8C147.8,314.2,136.4,286.5,136.4,256.2z M256,375.6c-27.4,0-52.7-9.3-72.9-24.9  c3.4-6.7,28.2-51.4,93.7-74.1c0,0,0.1,0,0.1,0c16.4,42.8,23.4,78.7,25.3,89.8C288,372.3,272.4,375.6,256,375.6z M323.7,354.6  c-1.6-9.2-8-42.8-22.9-83.9c8.3-1.3,16.5-1.8,24.1-1.8c25,0,44.5,5.5,49.1,6.9C368.6,308.3,349.9,336.5,323.7,354.6z" fill="#FFFFFF"/>
    </symbol>
    <symbol id="icon_share-img-facebook" viewBox="0 0 512 512">
      <path d="M374,511.7H138c-76.2,0-138-61.8-138-138v-236c0-76.2,61.8-138,138-138h236c76.2,0,138,61.8,138,138v236  C512,449.9,450.2,511.7,374,511.7z" fill="#3B5998"/><path d="M145.5,265.2c0,7.7,0,42.1,0,42.1h-30.9v51.5h30.9V512h63.4V358.9h42.5c0,0,4-24.7,5.9-51.7  c-5.5,0-48.2,0-48.2,0s0-30,0-35.2c0-5.3,6.9-12.3,13.7-12.3c6.8,0,21.2,0,34.5,0c0-7,0-31.3,0-53.6c-17.8,0-38,0-47,0  C143.9,206,145.5,257.5,145.5,265.2z" fill="#FFFFFF" id="Facebook"/>
    </symbol>
    <symbol id="icon_share-img-twitter" viewBox="0 0 512 512">
      <path d="M374,511.7H138c-76.2,0-138-61.8-138-138v-236c0-76.2,61.8-138,138-138h236c76.2,0,138,61.8,138,138v236  C512,449.9,450.2,511.7,374,511.7z" fill="#55ACE8"/><path d="M410,169.9c-10.5,4.6-21.7,7.8-33.5,9.2c12-7.2,21.2-18.6,25.6-32.2c-11.3,6.7-23.7,11.5-37,14.1  c-10.6-11.3-25.8-18.4-42.5-18.4c-32.2,0-58.3,26.1-58.3,58.3c0,4.6,0.5,9,1.5,13.3c-48.4-2.4-91.4-25.6-120.1-60.9  c-5,8.6-7.9,18.6-7.9,29.3c0,20.2,10.3,38.1,25.9,48.5c-9.5-0.3-18.5-2.9-26.4-7.3v0.7c0,28.2,20.1,51.8,46.7,57.1  c-4.9,1.3-10,2-15.4,2c-3.8,0-7.4-0.4-11-1.1c7.4,23.1,28.9,40,54.4,40.5c-19.9,15.6-45.1,24.9-72.4,24.9c-4.7,0-9.3-0.3-13.9-0.8  c25.8,16.5,56.4,26.2,89.3,26.2c107.2,0,165.8-88.8,165.8-165.8l-0.2-7.5C392.3,191.9,402.2,181.6,410,169.9z" fill="#FFFFFF"/>
    </symbol>
    <symbol id="icon_up-arrow" viewBox="0 0 64 64">
       <g> <path fill="#62acb5" d="M3.352,48.296l28.56-28.328l28.58,28.347c0.397,0.394,0.917,0.59,1.436,0.59c0.52,0,1.04-0.196,1.436-0.59   c0.793-0.787,0.793-2.062,0-2.849l-29.98-29.735c-0.2-0.2-0.494-0.375-0.757-0.475c-0.75-0.282-1.597-0.107-2.166,0.456   L0.479,45.447c-0.793,0.787-0.793,2.062,0,2.849C1.273,49.082,2.558,49.082,3.352,48.296z"/> </g> 
    </symbol></svg>