<?xml version="1.0" encoding="utf-8"?>
<!-- Generator: Adobe Illustrator 17.1.0, SVG Export Plug-In . SVG Version: 6.00 Build 0)  -->
<!DOCTYPE svg PUBLIC "-//W3C//DTD SVG 1.1//EN" "http://www.w3.org/Graphics/SVG/1.1/DTD/svg11.dtd">
<svg version="1.1" id="Layer_1" xmlns="http://www.w3.org/2000/svg" xmlns:xlink="http://www.w3.org/1999/xlink" x="0px" y="0px"
	 viewBox="0 0 279.4 29.8">
	<path fill="#F2394A" d="M12.4,28.6H1.8V4.8h3.6v21.8h7V28.6z"/>
	<path fill="#F2394A" d="M13.7,11.1c0-2,0.4-3.6,1.2-4.7c0.8-1.1,2.1-1.6,3.9-1.6H24c1.8,0,3.1,0.5,3.9,1.6c0.8,1.1,1.2,2.7,1.2,4.7
		v11.4c0,1.9-0.4,3.4-1.2,4.5c-0.8,1.1-2.1,1.6-3.9,1.6h-5.2c-1.8,0-3.1-0.5-3.9-1.6c-0.8-1.1-1.2-2.6-1.2-4.5V11.1z M25.5,11.1
		c0-1.7-0.2-2.8-0.6-3.4c-0.4-0.6-1.1-0.9-2-0.9h-3.1c-0.9,0-1.6,0.3-2,0.9c-0.4,0.6-0.6,1.7-0.6,3.4v11.4c0,1.4,0.2,2.4,0.6,3.1
		c0.4,0.7,1.1,1,2,1h3.1c0.9,0,1.6-0.3,2-1c0.4-0.7,0.6-1.7,0.6-3.1V11.1z"/>
	<path fill="#F2394A" d="M45.1,21.5c0,2.5-0.4,4.3-1.3,5.4c-0.8,1.2-2.3,1.7-4.3,1.7h-7.6v-2h6.9c0.5,0,0.9-0.1,1.3-0.2
		c0.4-0.1,0.7-0.3,0.9-0.7c0.2-0.3,0.4-0.8,0.5-1.4s0.2-1.4,0.2-2.4c0-0.8,0-1.5-0.1-2.1c-0.1-0.5-0.3-0.9-0.5-1.2
		c-0.2-0.3-0.6-0.5-1-0.6c-0.4-0.1-1-0.2-1.6-0.2h-2.6c-0.9,0-1.6-0.1-2.2-0.3c-0.6-0.2-1.1-0.6-1.4-1.1c-0.4-0.5-0.6-1.2-0.8-2
		c-0.2-0.8-0.2-1.9-0.2-3.1c0-2.1,0.4-3.7,1.2-4.9c0.8-1.2,2.1-1.8,4.1-1.8h6.6v2h-5.8c-0.5,0-0.9,0.1-1.2,0.2
		c-0.3,0.1-0.6,0.3-0.9,0.6c-0.2,0.3-0.4,0.7-0.5,1.3c-0.1,0.5-0.2,1.2-0.2,2c0,0.8,0,1.4,0.1,2c0.1,0.5,0.2,0.9,0.4,1.2
		c0.2,0.3,0.5,0.5,0.8,0.6c0.4,0.1,0.9,0.2,1.5,0.2h2.4c0.9,0,1.7,0.1,2.4,0.3c0.7,0.2,1.2,0.5,1.6,1c0.4,0.5,0.7,1.1,1,2
		S45.1,20.1,45.1,21.5z"/>
	<path fill="#F2394A" d="M58.7,6.8h-4.9v21.8h-3.6V6.8h-4.9v-2h13.4V6.8z"/>
	<path fill="#3C3C3C" d="M64.6,3.4h13c3,0,5.3,0.2,7.2,1.2c2.3,1.3,3.5,3.7,3.5,6.9c0,3.3-1.3,5.6-3.6,6.8c-2.3,1.2-5,1.3-8.4,1.3
		h-4.8v9h-7V3.4z M71.6,14.8H76c3.6,0,5.2-0.6,5.2-3.3c0-2.6-1.7-3.1-5.2-3.1h-4.3V14.8z"/>
	<path fill="#3C3C3C" d="M99.5,3.4h8.5l12.4,25.2h-8.1l-2.2-5.1H96.3l-2.3,5.1h-7.6L99.5,3.4z M107.7,18.7L103.4,9l-4.8,9.7H107.7z"
		/>
	<path fill="#3C3C3C" d="M122.1,3.4h13.8c3,0,5.4,0.1,7.4,1.1c2.1,1,3.2,2.9,3.2,5.3c0,3.5-2.3,5.6-6.9,6.4c3.3,0,5,0.8,5.7,2.9
		c0.7,2,0.6,5.4,1.9,9.6h-7.4c-0.4-0.7-0.5-1.7-0.7-2.9l-0.5-3.4c-0.5-3.1-1.5-3.3-5.3-3.3H129v9.6h-7V3.4z M129,14.2h4.4
		c3.8,0,5.5-0.6,5.5-3c0-2.5-1.8-2.9-5.5-2.9H129V14.2z"/>
	<path fill="#3C3C3C" d="M160.2,3.4h8.5l12.4,25.2H173l-2.2-5.1H157l-2.3,5.1h-7.6L160.2,3.4z M168.5,18.7L164.2,9l-4.8,9.7H168.5z"
		/>
	<path fill="#3C3C3C" d="M182.8,3.4h12.7c4,0,7.1,0.3,9.9,1.9c3.6,2,5.7,5.9,5.7,11c0,4.9-2,8.6-5.5,10.6c-3,1.7-6.2,1.8-10.1,1.8
		h-12.7V3.4z M189.9,9v14.2h4.6c6.3,0,9.2-2,9.2-7c0-4.8-3-7.2-9.2-7.2H189.9z"/>
	<path fill="#3C3C3C" d="M215.7,3.4h7.2v25.2h-7.2V3.4z"/>
	<path fill="#3C3C3C" d="M234.7,20.2v0.2c0,2.5,1.6,3.6,5,3.6c3,0,4.6-0.9,4.6-2.6c0-2.2-2.5-2.3-6.9-3.2c-6.4-1.2-9.3-3-9.3-7.3
		c0-5.1,4.1-7.9,11.8-7.9c7.2,0,10.6,2.3,11,7.6h-6.8v-0.1c0-1.9-1.5-2.8-4.4-2.8c-2.9,0-4.4,0.9-4.4,2.3c0,2,2.1,2.2,6.4,3
		c3.3,0.6,5.8,1.1,7.7,2.7c1.4,1.2,2.1,3,2.1,5.1c0,5.1-4.3,8.1-12.2,8.1c-7.9,0-11.8-2.7-11.8-8.3v-0.5H234.7z"/>
	<path fill="#3C3C3C" d="M255.8,3.4h21.5v5.4h-14.5v4.4h13.8v5.2h-13.8v4.9h14.9v5.4h-21.8V3.4z"/>
	<rect x="-56.3" y="23.6" fill="none"/>
</svg>
