<?xml version="1.0" ?><!DOCTYPE svg  PUBLIC '-//W3C//DTD SVG 1.1//EN'  'http://www.w3.org/Graphics/SVG/1.1/DTD/svg11.dtd'><svg enable-background="new 0 0 512 512" id="Layer_1" version="1.1" width="100" height='100' viewBox="0 0 512 512" xml:space="preserve" xmlns="http://www.w3.org/2000/svg" xmlns:xlink="http://www.w3.org/1999/xlink"><path d="M374,511.7H138c-76.2,0-138-61.8-138-138v-236c0-76.2,61.8-138,138-138h236c76.2,0,138,61.8,138,138v236  C512,449.9,450.2,511.7,374,511.7z" fill="#1769FF"/><path d="M361,197.9h-65.3v-16.2H361L361,197.9L361,197.9z M252.3,264.4c4.2,6.5,6.3,14.4,6.3,23.7  c0,9.6-2.4,18.2-7.2,25.9c-3.1,5-6.9,9.3-11.5,12.7c-5.2,4-11.3,6.7-18.3,8.1c-7,1.5-14.7,2.2-22.9,2.2h-73V174.9H204  c19.7,0.3,33.7,6,42,17.3c5,6.9,7.4,15.1,7.4,24.8c0,9.9-2.5,17.8-7.5,23.9c-2.8,3.4-6.9,6.4-12.3,9.2  C241.8,253.1,248.1,257.8,252.3,264.4z M163.1,238.9h34.3c7,0,12.7-1.3,17.1-4c4.4-2.7,6.6-7.4,6.6-14.3c0-7.5-2.9-12.5-8.7-15  c-5-1.7-11.4-2.5-19.1-2.5h-30.2V238.9z M224.4,285.8c0-8.4-3.4-14.2-10.3-17.4c-3.8-1.8-9.3-2.7-16.2-2.7h-34.8v43.2h34.3  c7,0,12.5-0.9,16.4-2.8C220.9,302.5,224.4,295.8,224.4,285.8z M385.2,259.4c0.8,5.3,1.1,13,1,23.1h-84.6  c0.5,11.7,4.5,19.8,12.1,24.5c4.6,2.9,10.2,4.4,16.7,4.4c6.9,0,12.5-1.7,16.8-5.3c2.4-1.9,4.4-4.6,6.2-8h31  c-0.8,6.9-4.5,13.9-11.2,21c-10.4,11.3-25,17-43.7,17c-15.5,0-29.1-4.8-40.9-14.3c-11.8-9.5-17.7-25-17.7-46.5  c0-20.1,5.3-35.6,16-46.3c10.7-10.8,24.5-16.1,41.5-16.1c10.1,0,19.2,1.8,27.3,5.4c8.1,3.6,14.8,9.3,20,17.2  C380.7,242.3,383.8,250.3,385.2,259.4z M354.7,262.5c-0.6-8.1-3.3-14.2-8.1-18.4c-4.8-4.2-10.8-6.3-18-6.3c-7.8,0-13.8,2.2-18.1,6.7  c-4.3,4.4-7,10.4-8.1,18H354.7z" fill="#FFFFFF" id="Behance"/></svg>