<?xml version="1.0" ?><!DOCTYPE svg  PUBLIC '-//W3C//DTD SVG 1.1//EN'  'http://www.w3.org/Graphics/SVG/1.1/DTD/svg11.dtd'><svg enable-background="new 0 0 512 512" id="Layer_1" version="1.1" width="100" height='100' viewBox="0 0 512 512" xml:space="preserve" xmlns="http://www.w3.org/2000/svg" xmlns:xlink="http://www.w3.org/1999/xlink"><path d="M374,511.7H138c-76.2,0-138-61.8-138-138v-236c0-76.2,61.8-138,138-138h236c76.2,0,138,61.8,138,138v236  C512,449.9,450.2,511.7,374,511.7z" fill="#3B5998"/><path d="M145.5,265.2c0,7.7,0,42.1,0,42.1h-30.9v51.5h30.9V512h63.4V358.9h42.5c0,0,4-24.7,5.9-51.7  c-5.5,0-48.2,0-48.2,0s0-30,0-35.2c0-5.3,6.9-12.3,13.7-12.3c6.8,0,21.2,0,34.5,0c0-7,0-31.3,0-53.6c-17.8,0-38,0-47,0  C143.9,206,145.5,257.5,145.5,265.2z" fill="#FFFFFF" id="Facebook"/></svg>