<?xml version="1.0" ?><!DOCTYPE svg  PUBLIC '-//W3C//DTD SVG 1.1//EN'  'http://www.w3.org/Graphics/SVG/1.1/DTD/svg11.dtd'><svg 
enable-background="new 0 0 512 512" id="Layer_1" version="1.1" width="100" height='100' viewBox="0 0 512 512" xml:space="preserve" xmlns="http://www.w3.org/2000/svg" xmlns:xlink="http://www.w3.org/1999/xlink"><path d="M374,511.7H138c-76.2,0-138-61.8-138-138v-236c0-76.2,61.8-138,138-138h236c76.2,0,138,61.8,138,138v236  C512,449.9,450.2,511.7,374,511.7z" fill="#EA4C89"/><path d="M256,114.6c-78.1,0-141.6,63.4-141.6,141.4c0,78,63.5,141.4,141.6,141.4S397.6,334,397.6,256  C397.6,178,334.1,114.6,256,114.6z M349.1,181.4c16.1,20,26,45.3,26.4,72.8c-5.4-1.1-28.1-5.3-55.3-5.3c-8.8,0-18,0.4-27.3,1.6  c-0.8-1.9-1.6-3.8-2.4-5.7c-2.4-5.6-5-11.2-7.7-16.8C324.8,210.7,345,186.8,349.1,181.4z M256,136.7c30.2,0,57.7,11.2,78.8,29.7  c-3.3,4.6-21.4,27.1-61.8,42.4c-18.7-34.2-39.1-62.4-44-69C237.7,137.8,246.7,136.7,256,136.7z M204.6,148.4  c4.1,5.7,24.6,34.2,43.8,68.1c-51.4,13.5-97.1,14.4-108.1,14.4c-0.4,0-0.8,0-1.2,0C147,194.4,171.7,164.1,204.6,148.4z M136.4,256.2  c0-1,0-2,0.1-2.9c0.7,0,1.8,0,3.1,0c14.8,0,66.4-1.2,119.4-17c3.2,6.3,6.3,12.7,9.1,19.1c-1.3,0.4-2.7,0.8-4,1.2  c-59.8,19.3-92.6,70.4-97.7,78.8C147.8,314.2,136.4,286.5,136.4,256.2z M256,375.6c-27.4,0-52.7-9.3-72.9-24.9  c3.4-6.7,28.2-51.4,93.7-74.1c0,0,0.1,0,0.1,0c16.4,42.8,23.4,78.7,25.3,89.8C288,372.3,272.4,375.6,256,375.6z M323.7,354.6  c-1.6-9.2-8-42.8-22.9-83.9c8.3-1.3,16.5-1.8,24.1-1.8c25,0,44.5,5.5,49.1,6.9C368.6,308.3,349.9,336.5,323.7,354.6z" fill="#FFFFFF"/></svg>