<?xml version="1.0" ?><!DOCTYPE svg  PUBLIC '-//W3C//DTD SVG 1.1//EN'  'http://www.w3.org/Graphics/SVG/1.1/DTD/svg11.dtd'><svg enable-background="new 0 0 512 512" id="Layer_1" version="1.1" width="100" height='100' viewBox="0 0 512 512" xml:space="preserve" xmlns="http://www.w3.org/2000/svg" xmlns:xlink="http://www.w3.org/1999/xlink"><path d="M374,511.7H138c-76.2,0-138-61.8-138-138v-236c0-76.2,61.8-138,138-138h236c76.2,0,138,61.8,138,138v236  C512,449.9,450.2,511.7,374,511.7z" fill="#55ACE8"/><path d="M410,169.9c-10.5,4.6-21.7,7.8-33.5,9.2c12-7.2,21.2-18.6,25.6-32.2c-11.3,6.7-23.7,11.5-37,14.1  c-10.6-11.3-25.8-18.4-42.5-18.4c-32.2,0-58.3,26.1-58.3,58.3c0,4.6,0.5,9,1.5,13.3c-48.4-2.4-91.4-25.6-120.1-60.9  c-5,8.6-7.9,18.6-7.9,29.3c0,20.2,10.3,38.1,25.9,48.5c-9.5-0.3-18.5-2.9-26.4-7.3v0.7c0,28.2,20.1,51.8,46.7,57.1  c-4.9,1.3-10,2-15.4,2c-3.8,0-7.4-0.4-11-1.1c7.4,23.1,28.9,40,54.4,40.5c-19.9,15.6-45.1,24.9-72.4,24.9c-4.7,0-9.3-0.3-13.9-0.8  c25.8,16.5,56.4,26.2,89.3,26.2c107.2,0,165.8-88.8,165.8-165.8l-0.2-7.5C392.3,191.9,402.2,181.6,410,169.9z" fill="#FFFFFF"/></svg>